<svg xmlns="http://www.w3.org/2000/svg" version="1.1" viewBox="-5.0 -10.0 110.0 135.0">
 <path d="m46.461 6.9336c20.359 0 37.418 14.133 41.906 33.117h6.6914c0.60547 0 1.1289 0.32422 1.3906 0.87109 0.26562 0.54688 0.19531 1.1562-0.18359 1.6328l-13.379 16.809c-0.30469 0.38281-0.72266 0.58203-1.207 0.58203-0.48438 0-0.90625-0.20312-1.207-0.58203l-13.379-16.809c-0.37891-0.47656-0.44531-1.0859-0.18359-1.6328 0.26562-0.54688 0.78516-0.87109 1.3906-0.87109h6.6875c-4.1133-11.801-15.332-20.27-28.535-20.27-16.688 0-30.215 13.527-30.215 30.215s13.527 30.215 30.215 30.215c7.5664 0 14.48-2.7812 19.781-7.375 0.92578-0.80469 2.3086-0.75391 3.1758 0.11328l5.8047 5.8047c0.46875 0.46875 0.69922 1.0508 0.68359 1.7148-0.019532 0.66406-0.28125 1.2305-0.77734 1.6719-7.6133 6.793-17.656 10.922-28.664 10.922-23.785 0-43.066-19.281-43.066-43.066s19.281-43.062 43.07-43.062z" fill-rule="evenodd"/>
<text x="0.0" y="117.5" font-size="5.0" font-weight="bold" font-family="Arbeit Regular, Helvetica, Arial-Unicode, Arial, Sans-serif" fill="#000000">Created by Devi Wijayanti</text><text x="0.0" y="122.5" font-size="5.0" font-weight="bold" font-family="Arbeit Regular, Helvetica, Arial-Unicode, Arial, Sans-serif" fill="#000000">from Noun Project</text></svg>